<svg width="24" height="25" viewBox="0 0 24 25" fill="none" xmlns="http://www.w3.org/2000/svg" id="img">
<path fill-rule="evenodd" clip-rule="evenodd" d="M3 9.88184C3 9.05341 3.67157 8.38184 4.5 8.38184H19.5C20.3284 8.38184 21 9.05341 21 9.88184V20.3818C21 21.2103 20.3284 21.8818 19.5 21.8818H4.5C3.67157 21.8818 3 21.2103 3 20.3818V9.88184ZM19.5 9.88184H4.5V20.3818H19.5V9.88184Z" fill="currentColor"/>
<path fill-rule="evenodd" clip-rule="evenodd" d="M12 3.13184C11.3038 3.13184 10.6361 3.4084 10.1438 3.90068C9.65156 4.39296 9.375 5.06064 9.375 5.75684V9.13184C9.375 9.54605 9.03921 9.88184 8.625 9.88184C8.21079 9.88184 7.875 9.54605 7.875 9.13184V5.75684C7.875 4.66282 8.3096 3.61361 9.08319 2.84002C9.85677 2.06643 10.906 1.63184 12 1.63184C13.094 1.63184 14.1432 2.06643 14.9168 2.84002C15.6904 3.61361 16.125 4.66282 16.125 5.75684V9.13184C16.125 9.54605 15.7892 9.88184 15.375 9.88184C14.9608 9.88184 14.625 9.54605 14.625 9.13184V5.75684C14.625 5.06064 14.3484 4.39296 13.8562 3.90068C13.3639 3.4084 12.6962 3.13184 12 3.13184Z" fill="currentColor"/>
</svg>
