<svg width="18" height="18" viewBox="0 0 18 18" fill="none" xmlns="http://www.w3.org/2000/svg">
<g id="MagnifyingGlass">
<g id="Vector">
<path fill-rule="evenodd" clip-rule="evenodd" d="M8.15625 2.8125C5.20498 2.8125 2.8125 5.20498 2.8125 8.15625C2.8125 11.1075 5.20498 13.5 8.15625 13.5C11.1075 13.5 13.5 11.1075 13.5 8.15625C13.5 5.20498 11.1075 2.8125 8.15625 2.8125ZM1.6875 8.15625C1.6875 4.58366 4.58366 1.6875 8.15625 1.6875C11.7288 1.6875 14.625 4.58366 14.625 8.15625C14.625 11.7288 11.7288 14.625 8.15625 14.625C4.58366 14.625 1.6875 11.7288 1.6875 8.15625Z" fill="black"/>
<path fill-rule="evenodd" clip-rule="evenodd" d="M11.935 11.9351C12.1546 11.7154 12.5108 11.7154 12.7305 11.9351L16.1476 15.3523C16.3673 15.5719 16.3673 15.9281 16.1476 16.1478C15.928 16.3674 15.5718 16.3674 15.3521 16.1478L11.935 12.7306C11.7153 12.5109 11.7153 12.1548 11.935 11.9351Z" fill="black"/>
</g>
</g>
</svg>
