<svg width="24" height="25" viewBox="0 0 24 25" fill="none" xmlns="http://www.w3.org/2000/svg">
<g id="MaskHappy">
<g id="Vector">
<path fill-rule="evenodd" clip-rule="evenodd" d="M15.3752 12.4988C15.1639 12.4988 14.9551 12.5434 14.7623 12.6297C14.5695 12.716 14.3971 12.8421 14.2564 12.9996C13.9805 13.3085 13.5064 13.3353 13.1974 13.0594C12.8885 12.7835 12.8617 12.3093 13.1377 12.0004C13.4191 11.6853 13.7638 11.4332 14.1494 11.2606C14.535 11.088 14.9527 10.9988 15.3752 10.9988C15.7976 10.9988 16.2153 11.088 16.6009 11.2606C16.9865 11.4332 17.3312 11.6853 17.6127 12.0004C17.8886 12.3093 17.8618 12.7835 17.5529 13.0594C17.2439 13.3353 16.7698 13.3085 16.4939 12.9996C16.3532 12.8421 16.1808 12.716 15.988 12.6297C15.7952 12.5434 15.5864 12.4988 15.3752 12.4988Z" fill="black"/>
<path fill-rule="evenodd" clip-rule="evenodd" d="M8.62515 12.4988C8.41393 12.4988 8.20508 12.5434 8.01229 12.6297C7.8195 12.716 7.64711 12.8421 7.5064 12.9996C7.23048 13.3085 6.75636 13.3353 6.44743 13.0594C6.13849 12.7835 6.11173 12.3093 6.38765 12.0004C6.66906 11.6853 7.01385 11.4332 7.39943 11.2606C7.78501 11.088 8.2027 10.9988 8.62515 10.9988C9.04761 10.9988 9.46529 11.088 9.85088 11.2606C10.2365 11.4332 10.5812 11.6853 10.8627 12.0004C11.1386 12.3093 11.1118 12.7835 10.8029 13.0594C10.4939 13.3353 10.0198 13.3085 9.7439 12.9996C9.6032 12.8421 9.43081 12.716 9.23802 12.6297C9.04523 12.5434 8.83638 12.4988 8.62515 12.4988Z" fill="black"/>
<path fill-rule="evenodd" clip-rule="evenodd" d="M8.89094 16.585C9.12009 16.24 9.58558 16.146 9.93063 16.3752C10.5439 16.7825 11.2638 16.9998 12.0001 16.9998C12.7363 16.9998 13.4562 16.7825 14.0695 16.3752C14.4146 16.146 14.8801 16.24 15.1092 16.585C15.3384 16.9301 15.2444 17.3956 14.8994 17.6247C14.0401 18.1954 13.0316 18.4998 12.0001 18.4998C10.9686 18.4998 9.96003 18.1954 9.10078 17.6247C8.75573 17.3956 8.66178 16.9301 8.89094 16.585Z" fill="black"/>
<path fill-rule="evenodd" clip-rule="evenodd" d="M5.0474 3.63676C6.42392 4.16494 9.05054 5 12 5C14.9496 5 17.5762 4.16494 18.9527 3.63676C19.1779 3.54609 19.4218 3.51177 19.6634 3.53683C19.9082 3.56225 20.143 3.64793 20.3467 3.78623C20.5504 3.92452 20.7167 4.11112 20.8307 4.32935C20.9439 4.54605 21.002 4.78724 21 5.03166V10.25C21 13.6962 20.0411 16.8487 18.4517 19.1605C16.8645 21.4689 14.5962 23 12 23C9.40388 23 7.13555 21.4689 5.54843 19.1605C3.95904 16.8487 3.00005 13.6962 3.00005 10.25V5.03173C2.99804 4.78729 3.05619 4.54607 3.16939 4.32935C3.28338 4.11112 3.44966 3.92452 3.65336 3.78623C3.85706 3.64793 4.09185 3.56225 4.33675 3.53683C4.57828 3.51177 4.82224 3.54609 5.0474 3.63676ZM4.50005 5.03333V10.25C4.50005 13.4319 5.38793 16.2794 6.78448 18.3106C8.1833 20.3452 10.04 21.5 12 21.5C13.9601 21.5 15.8168 20.3452 17.2156 18.3106C18.6122 16.2794 19.5 13.4319 19.5 10.25V5.03333L19.4971 5.0345C18.0406 5.59396 15.2146 6.5 12 6.5C8.7855 6.5 5.95953 5.59396 4.503 5.0345L4.50005 5.03333Z" fill="black"/>
</g>
</g>
</svg>
