<svg width="11" height="20" viewBox="0 0 11 20" fill="none" xmlns="http://www.w3.org/2000/svg" id="img">
<path fill-rule="evenodd" clip-rule="evenodd" d="M6.41038 2.04871C5.56271 1.87679 4.68168 2.00317 3.91652 2.40645C3.15137 2.80972 2.54914 3.4651 2.21186 4.26155C2.05033 4.64297 1.61019 4.82123 1.22877 4.65971C0.847344 4.49818 0.669082 4.05804 0.830607 3.67661C1.3028 2.56158 2.14592 1.64406 3.21714 1.07947C4.28836 0.514886 5.52181 0.337953 6.70854 0.578645C7.89527 0.819338 8.96232 1.46286 9.72891 2.40019C10.4953 3.33725 10.9143 4.51035 10.915 5.72087L10.915 5.72193L10.165 5.72221L10.915 5.71981L10.915 5.72087C10.9181 6.76754 10.6049 7.79075 10.0165 8.65636L9.39623 8.23471L8.79599 7.78504L8.78518 7.79945C9.19789 7.18653 9.41735 6.46378 9.41498 5.72461L9.41498 5.72249C9.41466 4.85756 9.11536 4.01934 8.56779 3.34982C8.02022 2.68029 7.25805 2.22064 6.41038 2.04871ZM2.66396 18.4722L9.99648 8.68438L9.39623 8.23471L8.77598 7.81306C8.77906 7.80853 8.78213 7.80399 8.78518 7.79945L0.564737 18.7725C0.394458 18.9998 0.367173 19.3038 0.494254 19.5578C0.621334 19.8118 0.880977 19.9722 1.16498 19.9722H10.165C10.5792 19.9722 10.915 19.6364 10.915 19.2222C10.915 18.808 10.5792 18.4722 10.165 18.4722H2.66396Z" fill="white"/>
</svg>
