<svg width="22" height="22" viewBox="0 0 22 22" fill="none" xmlns="http://www.w3.org/2000/svg" id="img">
<path fill-rule="evenodd" clip-rule="evenodd" d="M10.477 0.942433C10.7283 0.7676 11.0272 0.673889 11.3334 0.673889C11.6396 0.673889 11.9385 0.7676 12.1899 0.942433C12.4413 1.11727 12.6331 1.36485 12.7397 1.65191L12.7414 1.65659L14.9153 7.63485L14.9175 7.63824L14.9197 7.63991L14.9205 7.64028L20.9038 9.81601C21.1909 9.92256 21.4384 10.1144 21.6133 10.3658C21.7881 10.6172 21.8818 10.9161 21.8818 11.2223C21.8818 11.5285 21.7881 11.8273 21.6133 12.0787C21.4384 12.3301 21.1909 12.522 20.9038 12.6285L20.8991 12.6303L14.9208 14.8041L14.9175 14.8063L14.9154 14.8094L12.7397 20.7926C12.6331 21.0797 12.4413 21.3273 12.1899 21.5021C11.9385 21.6769 11.6396 21.7707 11.3334 21.7707C11.0272 21.7707 10.7283 21.6769 10.477 21.5021C10.2256 21.3273 10.0337 21.0797 9.92717 20.7926L9.92543 20.788L7.75155 14.8097L7.75033 14.8074L7.74938 14.8063L7.74627 14.8043L1.76305 12.6285C1.47599 12.522 1.22841 12.3301 1.05358 12.0787C0.878745 11.8273 0.785034 11.5285 0.785034 11.2223C0.785034 10.9161 0.878745 10.6172 1.05358 10.3658C1.22841 10.1144 1.47599 9.92258 1.76306 9.81602L1.76773 9.81429L7.74599 7.6404L7.74938 7.63824L7.75143 7.63515L9.92715 1.65191C10.0337 1.36484 10.2256 1.11727 10.477 0.942433ZM14.2116 14.5504L13.5078 14.2911C13.5833 14.0862 13.7024 13.9001 13.8568 13.7457C14.0112 13.5912 14.1973 13.4722 14.4022 13.3967L14.4052 13.3956L20.3818 11.2223L14.4052 9.049L14.4022 9.0479C14.1973 8.97239 14.0112 8.85332 13.8568 8.69889C13.7024 8.54447 13.5833 8.35838 13.5078 8.15345L13.5067 8.15046L11.3334 2.17394L9.16014 8.15046L9.15904 8.15345C9.08354 8.35837 8.96447 8.54447 8.81004 8.69889C8.65561 8.85332 8.46951 8.97239 8.2646 9.0479L8.2616 9.049L2.28508 11.2223L8.2646 13.3966C8.46952 13.4722 8.65562 13.5912 8.81004 13.7457C8.96447 13.9001 9.08354 14.0862 9.15904 14.2911L9.16015 14.2941L11.3334 20.2707L13.5067 14.2941L14.2116 14.5504Z" fill="currentColor"/>
</svg>
