<svg xmlns="http://www.w3.org/2000/svg" width="33" height="33" viewBox="0 0 33 33" fill="none">
<path fill-rule="evenodd" clip-rule="evenodd" d="M15.7929 5.01512C16.1834 4.6246 16.8166 4.6246 17.2071 5.01512L22.4571 10.2651C22.8476 10.6556 22.8476 11.2888 22.4571 11.6793C22.0666 12.0699 21.4334 12.0699 21.0429 11.6793L16.5 7.13644L11.9571 11.6793C11.5666 12.0699 10.9334 12.0699 10.5429 11.6793C10.1524 11.2888 10.1524 10.6556 10.5429 10.2651L15.7929 5.01512Z" fill="black"/>
<path fill-rule="evenodd" clip-rule="evenodd" d="M16.5 4.72223C17.0523 4.72223 17.5 5.16994 17.5 5.72223V19.7222C17.5 20.2745 17.0523 20.7222 16.5 20.7222C15.9477 20.7222 15.5 20.2745 15.5 19.7222V5.72223C15.5 5.16994 15.9477 4.72223 16.5 4.72223Z" fill="black"/>
<path fill-rule="evenodd" clip-rule="evenodd" d="M5.5 18.7222C6.05228 18.7222 6.5 19.1699 6.5 19.7222V26.7222H26.5V19.7222C26.5 19.1699 26.9477 18.7222 27.5 18.7222C28.0523 18.7222 28.5 19.1699 28.5 19.7222V26.7222C28.5 27.2527 28.2893 27.7614 27.9142 28.1364C27.5391 28.5115 27.0304 28.7222 26.5 28.7222H6.5C5.96957 28.7222 5.46086 28.5115 5.08579 28.1364C4.71071 27.7614 4.5 27.2527 4.5 26.7222V19.7222C4.5 19.1699 4.94772 18.7222 5.5 18.7222Z" fill="black"/>
</svg>