<svg width="27" height="27" viewBox="0 0 27 27" fill="none" xmlns="http://www.w3.org/2000/svg">
<g clip-path="url(#clip0_167_112)">
<rect width="26.7222" height="26.7222" rx="6" fill="#5951F2"/>
<path fill-rule="evenodd" clip-rule="evenodd" d="M13.0756 0.000119985H2.08488e-06L2.75923e-06 15.2148C0.634419 15.072 1.28033 14.9924 1.92806 14.9782C3.19085 14.9504 4.43582 15.1717 5.59188 15.6293C6.74793 16.087 7.79244 16.772 8.66577 17.6453C9.53909 18.5187 10.2241 19.5632 10.6818 20.7192C11.1394 21.8753 11.3607 23.1203 11.3329 24.383C11.3052 25.6458 11.029 26.9017 10.5202 28.079C10.0113 29.2563 9.27972 30.3319 8.36719 31.2444L2.08488e-06 22.8772V31.6557L32.0666 31.6557L32.0666 0.000119985H21.0612C21.0896 0.024869 21.118 0.0497272 21.1465 0.0746933C22.0065 0.828399 22.8986 1.66582 23.772 2.53914C24.6453 3.41247 25.4827 4.3046 26.2364 5.16458C26.9901 6.02457 27.6453 6.83558 28.1647 7.55131C28.684 8.26703 29.0573 8.87346 29.2632 9.33596C29.4691 9.79846 29.5036 10.108 29.3648 10.2468L19.1181 0.000119985H16.5747C16.6513 0.0318036 16.7287 0.064927 16.8067 0.0994834C17.6627 0.478551 18.585 1.02251 19.5209 1.7003C20.4568 2.37809 21.388 3.17644 22.2613 4.04976C23.1347 4.92309 23.933 5.85429 24.6108 6.79019C25.2886 7.7261 25.8325 8.64837 26.2116 9.50437C26.5907 10.3604 26.7974 11.1333 26.8201 11.7791C26.8427 12.4249 26.6808 12.9308 26.3435 13.2681L13.0756 0.000119985ZM22.8663 15.7329C22.7057 16.5619 22.3473 17.2643 21.8117 17.7999L8.51117 4.49941C9.04679 3.96379 9.74917 3.60543 10.5782 3.44479C11.4073 3.28415 12.3468 3.32438 13.343 3.56317C14.3393 3.80196 15.3729 4.23465 16.3847 4.83653C17.3965 5.4384 18.3668 6.19768 19.2401 7.071C20.1134 7.94433 20.8727 8.9146 21.4746 9.92642C22.0764 10.9382 22.5091 11.9718 22.7479 12.9681C22.9867 13.9643 23.027 14.9038 22.8663 15.7329ZM15.9203 23.6913C16.6344 22.9772 17.1696 22.098 17.4952 21.104C17.8208 20.11 17.9304 19.0206 17.8179 17.8981C17.7053 16.7756 17.3728 15.6419 16.8392 14.5618C16.3057 13.4816 15.5816 12.4762 14.7082 11.6029C13.8349 10.7295 12.8295 10.0054 11.7493 9.47187C10.6692 8.93832 9.5355 8.60578 8.41298 8.49323C7.29046 8.38068 6.2011 8.49033 5.2071 8.81592C4.21309 9.14151 3.33391 9.67666 2.61976 10.3908L15.9203 23.6913Z" fill="#F28151"/>
</g>
<defs>
<clipPath id="clip0_167_112">
<rect width="26.7222" height="26.7222" rx="6" fill="white"/>
</clipPath>
</defs>
</svg>
