<svg width="160" height="27" viewBox="0 0 160 27" fill="none" xmlns="http://www.w3.org/2000/svg">
<path d="M152.528 24.5527C151.508 24.5527 150.612 24.3596 149.839 23.9733C149.067 23.5871 148.463 23.0424 148.027 22.3393C147.601 21.6362 147.388 20.8192 147.388 19.8883V19.8586C147.388 18.9772 147.606 18.2147 148.042 17.571C148.488 16.9273 149.126 16.4173 149.958 16.041C150.8 15.6647 151.81 15.4418 152.989 15.3725L158.708 15.0457V17.0511L153.286 17.3779C152.256 17.4373 151.454 17.6849 150.879 18.1206C150.315 18.5564 150.033 19.1357 150.033 19.8586V19.8883C150.033 20.631 150.31 21.2203 150.864 21.656C151.429 22.0918 152.177 22.3096 153.107 22.3096C153.919 22.3096 154.647 22.1413 155.291 21.8046C155.945 21.458 156.46 20.9876 156.836 20.3934C157.222 19.7992 157.415 19.1307 157.415 18.388V13.8276C157.415 12.8868 157.118 12.1491 156.524 11.6143C155.94 11.0696 155.108 10.7973 154.028 10.7973C153.038 10.7973 152.236 11.0152 151.622 11.4509C151.018 11.8767 150.642 12.4362 150.493 13.1295L150.463 13.2632H147.968L147.983 13.0998C148.062 12.2481 148.349 11.4756 148.844 10.7824C149.349 10.0892 150.042 9.53959 150.924 9.13357C151.805 8.71764 152.85 8.50967 154.058 8.50967C155.276 8.50967 156.326 8.71764 157.207 9.13357C158.099 9.5495 158.787 10.1387 159.272 10.9013C159.757 11.6539 160 12.5452 160 13.5751V24.2556H157.415V21.7451H157.356C157.059 22.3096 156.663 22.8048 156.167 23.2306C155.672 23.6465 155.113 23.9733 154.489 24.211C153.875 24.4388 153.221 24.5527 152.528 24.5527Z" fill="black"/>
<path d="M138.773 24.5527C137.297 24.5527 136.025 24.2259 134.955 23.5723C133.896 22.9187 133.079 21.9977 132.504 20.8093C131.94 19.611 131.658 18.2048 131.658 16.5906V16.5757C131.658 14.9813 131.945 13.5801 132.519 12.3719C133.093 11.1538 133.901 10.2081 134.94 9.53464C135.98 8.85133 137.203 8.50967 138.609 8.50967C140.016 8.50967 141.224 8.83648 142.234 9.49008C143.254 10.1338 144.036 11.0399 144.581 12.2085C145.126 13.377 145.398 14.7338 145.398 16.2786V17.2293H132.95V15.2091H144.121L142.813 17.0808V16.0855C142.813 14.8873 142.63 13.897 142.264 13.1146C141.907 12.3323 141.412 11.7529 140.778 11.3766C140.144 10.9904 139.417 10.7973 138.595 10.7973C137.773 10.7973 137.035 11.0003 136.381 11.4063C135.728 11.8024 135.213 12.3966 134.836 13.1889C134.46 13.9712 134.272 14.9368 134.272 16.0855V17.0808C134.272 18.1701 134.455 19.101 134.822 19.8735C135.198 20.6459 135.728 21.2401 136.411 21.656C137.094 22.062 137.901 22.2651 138.832 22.2651C139.486 22.2651 140.07 22.166 140.585 21.968C141.1 21.7699 141.531 21.4976 141.877 21.151C142.224 20.8043 142.472 20.4082 142.62 19.9626L142.665 19.8289H145.205L145.175 19.9774C145.046 20.6112 144.799 21.2054 144.432 21.76C144.076 22.3146 143.615 22.8048 143.051 23.2306C142.487 23.6465 141.843 23.9733 141.12 24.211C140.397 24.4388 139.615 24.5527 138.773 24.5527Z" fill="black"/>
<path d="M107.964 24.2555V8.80677H110.549V11.0647H110.609C110.955 10.3021 111.5 9.68814 112.243 9.22269C112.985 8.74735 113.852 8.50967 114.842 8.50967C115.545 8.50967 116.179 8.62851 116.744 8.86618C117.318 9.09395 117.813 9.43066 118.229 9.8763C118.645 10.312 118.962 10.8468 119.18 11.4806H119.239C119.526 10.8567 119.908 10.3269 120.383 9.89115C120.868 9.44551 121.423 9.10386 122.047 8.86618C122.68 8.62851 123.359 8.50967 124.082 8.50967C125.102 8.50967 125.988 8.72259 126.741 9.14842C127.493 9.56435 128.078 10.1536 128.494 10.9161C128.909 11.6688 129.117 12.56 129.117 13.5899V24.2555H126.533V14.1841C126.533 13.4711 126.404 12.8621 126.146 12.357C125.899 11.852 125.537 11.4657 125.062 11.1984C124.587 10.931 124.007 10.7973 123.324 10.7973C122.641 10.7973 122.037 10.9557 121.512 11.2726C120.987 11.5796 120.576 12.0104 120.279 12.565C119.982 13.1096 119.833 13.7335 119.833 14.4367V24.2555H117.249V13.9019C117.249 13.278 117.115 12.7333 116.848 12.2679C116.59 11.8024 116.224 11.441 115.748 11.1835C115.283 10.926 114.728 10.7973 114.085 10.7973C113.401 10.7973 112.792 10.9656 112.257 11.3023C111.733 11.6291 111.317 12.0748 111.01 12.6393C110.703 13.2037 110.549 13.8474 110.549 14.5704V24.2555H107.964Z" fill="black"/>
<path d="M98.205 24.5527C96.7789 24.5527 95.5262 24.2259 94.4467 23.5723C93.3772 22.9187 92.5404 21.9927 91.9363 20.7944C91.3421 19.5863 91.045 18.1652 91.045 16.5312V16.5015C91.045 14.8575 91.3421 13.4414 91.9363 12.253C92.5404 11.0548 93.3772 10.1338 94.4467 9.49008C95.5262 8.83648 96.774 8.50967 98.1901 8.50967C99.6161 8.50967 100.864 8.83648 101.933 9.49008C103.013 10.1338 103.85 11.0548 104.444 12.253C105.048 13.4414 105.35 14.8575 105.35 16.5015V16.5312C105.35 18.1751 105.048 19.5962 104.444 20.7944C103.85 21.9927 103.018 22.9187 101.948 23.5723C100.879 24.2259 99.631 24.5527 98.205 24.5527ZM98.2198 22.2651C99.1309 22.2651 99.9182 22.0422 100.582 21.5966C101.255 21.1411 101.775 20.4875 102.141 19.6358C102.518 18.7742 102.706 17.7393 102.706 16.5312V16.5015C102.706 15.2933 102.518 14.2634 102.141 13.4117C101.775 12.56 101.25 11.9114 100.567 11.4657C99.8934 11.0201 99.1012 10.7973 98.1901 10.7973C97.2988 10.7973 96.5115 11.0251 95.8282 11.4806C95.1548 11.9262 94.6299 12.5749 94.2536 13.4266C93.8773 14.2683 93.6892 15.2933 93.6892 16.5015V16.5312C93.6892 17.7393 93.8773 18.7742 94.2536 19.6358C94.6299 20.4875 95.1548 21.1411 95.8282 21.5966C96.5115 22.0422 97.3087 22.2651 98.2198 22.2651Z" fill="black"/>
<path d="M83.1126 24.5527C81.9044 24.5527 80.8596 24.3596 79.9783 23.9733C79.0969 23.5871 78.3987 23.0474 77.8838 22.3542C77.3787 21.661 77.0717 20.8539 76.9628 19.9329L76.9479 19.7992H79.5326L79.5623 19.9477C79.7208 20.7202 80.0922 21.3243 80.6764 21.76C81.2607 22.1858 82.0777 22.3987 83.1274 22.3987C83.8306 22.3987 84.4297 22.3096 84.9249 22.1314C85.42 21.9432 85.8013 21.6808 86.0687 21.3441C86.336 20.9975 86.4697 20.5914 86.4697 20.126V20.1111C86.4697 19.5566 86.3014 19.1109 85.9647 18.7742C85.628 18.4375 85.0189 18.1602 84.1376 17.9424L81.6866 17.3482C80.7161 17.1105 79.909 16.8035 79.2653 16.4272C78.6315 16.041 78.1561 15.5706 77.8392 15.016C77.5223 14.4614 77.3639 13.8128 77.3639 13.07V13.0552C77.3639 12.1639 77.6015 11.3766 78.0769 10.6933C78.5621 10.01 79.2306 9.47522 80.0823 9.089C80.9438 8.70278 81.9292 8.50967 83.0383 8.50967C84.1673 8.50967 85.1477 8.71269 85.9795 9.11871C86.8213 9.51484 87.4798 10.0595 87.9552 10.7527C88.4404 11.436 88.7128 12.2085 88.7722 13.07L88.787 13.2632H86.3212L86.3063 13.1592C86.2073 12.4065 85.8755 11.8024 85.3111 11.3469C84.7565 10.8914 83.9989 10.6636 83.0383 10.6636C82.4144 10.6636 81.8747 10.7577 81.4192 10.9458C80.9636 11.134 80.6121 11.4014 80.3645 11.748C80.1268 12.0847 80.008 12.4808 80.008 12.9364V12.9512C80.008 13.2978 80.0872 13.6147 80.2457 13.9019C80.414 14.1792 80.6764 14.4218 81.033 14.6298C81.3895 14.8377 81.85 15.011 82.4144 15.1497L84.8654 15.7439C86.4301 16.1202 87.5294 16.6401 88.1632 17.3036C88.797 17.9572 89.1138 18.8336 89.1138 19.9329V19.9477C89.1138 20.8489 88.8514 21.6461 88.3266 22.3393C87.8116 23.0325 87.0986 23.5772 86.1875 23.9733C85.2863 24.3596 84.2613 24.5527 83.1126 24.5527Z" fill="black"/>
<path d="M68.2432 24.2555V8.80677H70.8279V11.4212H70.8873C71.1448 10.5299 71.5904 9.82183 72.2242 9.29697C72.858 8.77211 73.6106 8.50967 74.4821 8.50967C74.7099 8.50967 74.9129 8.52453 75.0911 8.55424C75.2793 8.57404 75.4229 8.59385 75.5219 8.61366V11.1241C75.4229 11.0845 75.2446 11.0498 74.9871 11.0201C74.7396 10.9904 74.4573 10.9755 74.1404 10.9755C73.4769 10.9755 72.8927 11.1241 72.3876 11.4212C71.8924 11.7183 71.5062 12.1491 71.2289 12.7135C70.9616 13.2681 70.8279 13.9366 70.8279 14.7189V24.2555H68.2432Z" fill="black"/>
<path d="M59.0037 24.5527C57.5281 24.5527 56.2556 24.2259 55.186 23.5723C54.1264 22.9187 53.3094 21.9977 52.735 20.8093C52.1705 19.611 51.8883 18.2048 51.8883 16.5906V16.5757C51.8883 14.9813 52.1755 13.5801 52.7499 12.3719C53.3242 11.1538 54.1313 10.2081 55.1712 9.53464C56.211 8.85133 57.434 8.50967 58.8403 8.50967C60.2465 8.50967 61.4547 8.83648 62.4648 9.49008C63.4848 10.1338 64.2671 11.0399 64.8118 12.2085C65.3565 13.377 65.6288 14.7338 65.6288 16.2786V17.2293H53.1807V15.2091H64.3513L63.0441 17.0808V16.0855C63.0441 14.8873 62.8609 13.897 62.4945 13.1146C62.138 12.3323 61.6428 11.7529 61.009 11.3766C60.3752 10.9904 59.6474 10.7973 58.8254 10.7973C58.0034 10.7973 57.2657 11.0003 56.6121 11.4063C55.9585 11.8024 55.4435 12.3966 55.0672 13.1889C54.6909 13.9712 54.5027 14.9368 54.5027 16.0855V17.0808C54.5027 18.1701 54.6859 19.101 55.0523 19.8735C55.4286 20.6459 55.9585 21.2401 56.6418 21.656C57.3251 22.062 58.1322 22.2651 59.0631 22.2651C59.7167 22.2651 60.301 22.166 60.8159 21.968C61.3309 21.7699 61.7617 21.4976 62.1083 21.151C62.4549 20.8043 62.7024 20.4082 62.851 19.9626L62.8956 19.8289H65.4357L65.406 19.9774C65.2772 20.6112 65.0297 21.2054 64.6632 21.76C64.3067 22.3146 63.8462 22.8048 63.2818 23.2306C62.7173 23.6465 62.0736 23.9733 61.3507 24.211C60.6278 24.4388 59.8454 24.5527 59.0037 24.5527Z" fill="black"/>
<path d="M37.5388 16.6054V14.2287H43.1538C44.6888 14.2287 45.8771 13.8326 46.7189 13.0403C47.5606 12.2382 47.9815 11.134 47.9815 9.72776V9.69805C47.9815 8.28192 47.5606 7.17772 46.7189 6.38548C45.8771 5.59323 44.6888 5.19711 43.1538 5.19711H37.5388V2.82037H43.8371C45.1839 2.82037 46.3723 3.10756 47.4022 3.68194C48.4321 4.25632 49.2392 5.05847 49.8235 6.08839C50.4177 7.11831 50.7148 8.31162 50.7148 9.66834V9.69805C50.7148 11.0548 50.4177 12.253 49.8235 13.2929C49.2392 14.3327 48.4321 15.1447 47.4022 15.729C46.3723 16.3133 45.1839 16.6054 43.8371 16.6054H37.5388ZM36.2018 24.2556V2.82037H38.8757V24.2556H36.2018Z" fill="black"/>
<g clip-path="url(#clip0_167_102)">
<rect width="26.7222" height="26.7222" rx="6" fill="#5951F2"/>
<path fill-rule="evenodd" clip-rule="evenodd" d="M13.0756 0.000119985H2.08488e-06L2.75923e-06 15.2148C0.634419 15.072 1.28033 14.9924 1.92806 14.9782C3.19085 14.9504 4.43582 15.1717 5.59188 15.6293C6.74793 16.087 7.79244 16.772 8.66577 17.6453C9.53909 18.5187 10.2241 19.5632 10.6818 20.7192C11.1394 21.8753 11.3607 23.1203 11.3329 24.383C11.3052 25.6458 11.029 26.9017 10.5202 28.079C10.0113 29.2563 9.27972 30.3319 8.36719 31.2444L2.08488e-06 22.8772V31.6557L32.0666 31.6557L32.0666 0.000119985H21.0612C21.0896 0.024869 21.118 0.0497272 21.1465 0.0746933C22.0065 0.828399 22.8986 1.66582 23.772 2.53914C24.6453 3.41247 25.4827 4.3046 26.2364 5.16458C26.9901 6.02457 27.6453 6.83558 28.1647 7.55131C28.684 8.26703 29.0573 8.87346 29.2632 9.33596C29.4691 9.79846 29.5036 10.108 29.3648 10.2468L19.1181 0.000119985H16.5747C16.6513 0.0318036 16.7287 0.064927 16.8067 0.0994834C17.6627 0.478551 18.585 1.02251 19.5209 1.7003C20.4568 2.37809 21.388 3.17644 22.2613 4.04976C23.1347 4.92309 23.933 5.85429 24.6108 6.79019C25.2886 7.7261 25.8325 8.64837 26.2116 9.50437C26.5907 10.3604 26.7974 11.1333 26.8201 11.7791C26.8427 12.4249 26.6808 12.9308 26.3435 13.2681L13.0756 0.000119985ZM22.8663 15.7329C22.7057 16.5619 22.3473 17.2643 21.8117 17.7999L8.51117 4.49941C9.04679 3.96379 9.74917 3.60543 10.5782 3.44479C11.4073 3.28415 12.3468 3.32438 13.343 3.56317C14.3393 3.80196 15.3729 4.23465 16.3847 4.83653C17.3965 5.4384 18.3668 6.19768 19.2401 7.071C20.1134 7.94433 20.8727 8.9146 21.4746 9.92642C22.0764 10.9382 22.5091 11.9718 22.7479 12.9681C22.9867 13.9643 23.027 14.9038 22.8663 15.7329ZM15.9203 23.6913C16.6344 22.9772 17.1696 22.098 17.4952 21.104C17.8208 20.11 17.9304 19.0206 17.8179 17.8981C17.7053 16.7756 17.3728 15.6419 16.8392 14.5618C16.3057 13.4816 15.5816 12.4762 14.7082 11.6029C13.8349 10.7295 12.8295 10.0054 11.7493 9.47187C10.6692 8.93832 9.5355 8.60578 8.41298 8.49323C7.29046 8.38068 6.2011 8.49033 5.2071 8.81592C4.21309 9.14151 3.33391 9.67666 2.61976 10.3908L15.9203 23.6913Z" fill="#F28151"/>
</g>
<defs>
<clipPath id="clip0_167_102">
<rect width="26.7222" height="26.7222" rx="6" fill="white"/>
</clipPath>
</defs>
</svg>
