<svg width="23" height="18" viewBox="0 0 23 18" fill="none" xmlns="http://www.w3.org/2000/svg" id="img">
<path fill-rule="evenodd" clip-rule="evenodd" d="M3.6711 3.39468C2.36081 3.98431 1.91663 4.64421 1.91663 5.09723C1.91663 5.55025 2.36081 6.21014 3.6711 6.79977C4.91098 7.35772 6.6765 7.72223 8.66663 7.72223C10.6568 7.72223 12.4223 7.35772 13.6622 6.79977C14.9724 6.21014 15.4166 5.55025 15.4166 5.09723C15.4166 4.64421 14.9724 3.98431 13.6622 3.39468C12.4223 2.83674 10.6568 2.47223 8.66663 2.47223C6.6765 2.47223 4.91098 2.83674 3.6711 3.39468ZM3.05555 2.0268C4.53013 1.36324 6.51462 0.972229 8.66663 0.972229C10.8186 0.972229 12.8031 1.36324 14.2777 2.0268C15.6819 2.65868 16.9166 3.68628 16.9166 5.09723C16.9166 6.50817 15.6819 7.53577 14.2777 8.16765C12.8031 8.83122 10.8186 9.22223 8.66663 9.22223C6.51462 9.22223 4.53013 8.83122 3.05555 8.16765C1.65137 7.53577 0.416626 6.50817 0.416626 5.09723C0.416626 3.68628 1.65137 2.65868 3.05555 2.0268Z" fill="currentColor"/>
<path fill-rule="evenodd" clip-rule="evenodd" d="M1.16663 4.34723C1.58084 4.34723 1.91663 4.68302 1.91663 5.09723V8.84723C1.91663 9.3013 2.36079 9.96114 3.67044 10.5504C4.91004 11.1081 6.67554 11.4722 8.66663 11.4722C10.6577 11.4722 12.4232 11.1081 13.6628 10.5504C14.9725 9.96114 15.4166 9.3013 15.4166 8.84723V5.09723C15.4166 4.68302 15.7524 4.34723 16.1666 4.34723C16.5808 4.34723 16.9166 4.68302 16.9166 5.09723V8.84723C16.9166 10.2588 15.6827 11.2864 14.2783 11.9183C12.8038 12.5817 10.8193 12.9722 8.66663 12.9722C6.51397 12.9722 4.52946 12.5817 3.055 11.9183C1.65059 11.2864 0.416626 10.2588 0.416626 8.84723V5.09723C0.416626 4.68302 0.752412 4.34723 1.16663 4.34723Z" fill="currentColor"/>
<path fill-rule="evenodd" clip-rule="evenodd" d="M5.66663 7.44098C6.08084 7.44098 6.41663 7.77676 6.41663 8.19098V11.941C6.41663 12.3552 6.08084 12.691 5.66663 12.691C5.25241 12.691 4.91663 12.3552 4.91663 11.941V8.19098C4.91663 7.77676 5.25241 7.44098 5.66663 7.44098Z" fill="currentColor"/>
<path fill-rule="evenodd" clip-rule="evenodd" d="M15.4199 6.21827C15.4583 5.80584 15.8238 5.50265 16.2362 5.54106C18.0173 5.70697 19.6229 6.14635 20.8084 6.79158C21.9523 7.41419 22.9166 8.35665 22.9166 9.59721C22.9166 11.0088 21.6827 12.0364 20.2783 12.6683C18.8038 13.3317 16.8193 13.7222 14.6666 13.7222C12.7538 13.7222 10.9754 13.4108 9.57573 12.8872C9.18778 12.742 8.99093 12.3099 9.13607 11.9219C9.2812 11.534 9.71336 11.3371 10.1013 11.4823C11.3079 11.9336 12.9045 12.2222 14.6666 12.2222C16.6577 12.2222 18.4232 11.8581 19.6628 11.3004C20.9725 10.7111 21.4166 10.0513 21.4166 9.59721C21.4166 9.20651 21.0919 8.65366 20.0913 8.10908C19.1323 7.58712 17.7379 7.18744 16.0971 7.0346C15.6847 6.99618 15.3815 6.6307 15.4199 6.21827Z" fill="currentColor"/>
<path fill-rule="evenodd" clip-rule="evenodd" d="M22.1666 8.84723C22.5808 8.84723 22.9166 9.18299 22.9166 9.59721L22.9166 13.3472C22.9166 14.7588 21.6827 15.7864 20.2783 16.4183C18.8038 17.0817 16.8193 17.4722 14.6666 17.4722C12.514 17.4722 10.5295 17.0817 9.05499 16.4183C7.65059 15.7864 6.41663 14.7588 6.41663 13.3472V12.1566C6.41663 11.7424 6.75241 11.4066 7.16663 11.4066C7.58084 11.4066 7.91663 11.7424 7.91663 12.1566V13.3472C7.91663 13.8013 8.36079 14.4611 9.67044 15.0504C10.91 15.6081 12.6755 15.9722 14.6666 15.9722C16.6577 15.9722 18.4232 15.6081 19.6628 15.0504C20.9725 14.4611 21.4166 13.8013 21.4166 13.3472L21.4166 9.59721C21.4166 9.18299 21.7524 8.84723 22.1666 8.84723Z" fill="currentColor"/>
<path fill-rule="evenodd" clip-rule="evenodd" d="M17.6666 11.941C18.0808 11.941 18.4166 12.2768 18.4166 12.691V16.441C18.4166 16.8552 18.0808 17.191 17.6666 17.191C17.2524 17.191 16.9166 16.8552 16.9166 16.441V12.691C16.9166 12.2768 17.2524 11.941 17.6666 11.941Z" fill="currentColor"/>
<path fill-rule="evenodd" clip-rule="evenodd" d="M11.6666 7.44098C12.0808 7.44098 12.4166 7.77676 12.4166 8.19098V16.441C12.4166 16.8552 12.0808 17.191 11.6666 17.191C11.2524 17.191 10.9166 16.8552 10.9166 16.441V8.19098C10.9166 7.77676 11.2524 7.44098 11.6666 7.44098Z" fill="currentColor"/>
</svg>
