<svg width="18" height="20" viewBox="0 0 18 20" fill="none" xmlns="http://www.w3.org/2000/svg" id="img">
<path fill-rule="evenodd" clip-rule="evenodd" d="M12.3752 9.22102C12.1639 9.22102 11.9551 9.26563 11.7623 9.35194C11.5695 9.43824 11.3971 9.56428 11.2564 9.72182C10.9805 10.0308 10.5064 10.0575 10.1974 9.7816C9.88849 9.50568 9.86173 9.03156 10.1377 8.72263C10.4191 8.40755 10.7638 8.15545 11.1494 7.98285C11.535 7.81025 11.9527 7.72102 12.3752 7.72102C12.7976 7.72102 13.2153 7.81025 13.6009 7.98285C13.9865 8.15545 14.3312 8.40755 14.6127 8.72263C14.8886 9.03156 14.8618 9.50568 14.5529 9.7816C14.2439 10.0575 13.7698 10.0308 13.4939 9.72182C13.3532 9.56428 13.1808 9.43824 12.988 9.35194C12.7952 9.26563 12.5864 9.22102 12.3752 9.22102Z" fill="currentColor"/>
<path fill-rule="evenodd" clip-rule="evenodd" d="M5.62515 9.22102C5.41393 9.22102 5.20508 9.26563 5.01229 9.35194C4.8195 9.43824 4.64711 9.56429 4.5064 9.72182C4.23048 10.0308 3.75636 10.0575 3.44743 9.7816C3.13849 9.50568 3.11173 9.03156 3.38765 8.72263C3.66906 8.40755 4.01385 8.15545 4.39943 7.98285C4.78501 7.81025 5.2027 7.72102 5.62515 7.72102C6.04761 7.72102 6.46529 7.81025 6.85088 7.98285C7.23646 8.15545 7.58124 8.40755 7.86265 8.72263C8.13857 9.03156 8.11181 9.50568 7.80288 9.7816C7.49394 10.0575 7.01982 10.0308 6.7439 9.72182C6.6032 9.56429 6.43081 9.43824 6.23802 9.35194C6.04523 9.26563 5.83638 9.22102 5.62515 9.22102Z" fill="currentColor"/>
<path fill-rule="evenodd" clip-rule="evenodd" d="M5.89094 13.3073C6.12009 12.9622 6.58558 12.8683 6.93063 13.0974C7.54395 13.5048 8.26383 13.722 9.00008 13.722C9.73633 13.722 10.4562 13.5048 11.0695 13.0974C11.4146 12.8683 11.8801 12.9622 12.1092 13.3073C12.3384 13.6523 12.2444 14.1178 11.8994 14.347C11.0401 14.9176 10.0316 15.222 9.00008 15.222C7.96859 15.222 6.96003 14.9176 6.10078 14.347C5.75573 14.1178 5.66178 13.6523 5.89094 13.3073Z" fill="currentColor"/>
<path fill-rule="evenodd" clip-rule="evenodd" d="M2.0474 0.358986C3.42392 0.887166 6.05054 1.72222 9.00005 1.72222C11.9496 1.72222 14.5762 0.887166 15.9527 0.358985C16.1779 0.268321 16.4218 0.233995 16.6634 0.259063C16.9082 0.284479 17.143 0.370162 17.3467 0.508456C17.5504 0.646749 17.7167 0.833348 17.8307 1.05158C17.9439 1.26828 18.002 1.50947 18 1.75389V6.97222C18 10.4184 17.0411 13.5709 15.4517 15.8827C13.8645 18.1911 11.5962 19.7222 9.00005 19.7222C6.40388 19.7222 4.13555 18.1911 2.54843 15.8827C0.959041 13.5709 5.02413e-05 10.4184 5.02413e-05 6.97222V1.75396C-0.00195659 1.50952 0.0561851 1.2683 0.169388 1.05158C0.283381 0.833349 0.449656 0.64675 0.65336 0.508456C0.857064 0.370162 1.09185 0.284479 1.33675 0.259063C1.57828 0.233995 1.82224 0.268321 2.0474 0.358986ZM1.50005 1.75556V6.97222C1.50005 10.1541 2.38793 13.0016 3.78448 15.0329C5.1833 17.0674 7.03997 18.2222 9.00005 18.2222C10.9601 18.2222 12.8168 17.0674 14.2156 15.0329C15.6122 13.0016 16.5 10.1541 16.5 6.97222V1.75556L16.4971 1.75673C15.0406 2.31619 12.2146 3.22222 9.00005 3.22222C5.7855 3.22222 2.95953 2.31619 1.503 1.75673L1.50005 1.75556Z" fill="currentColor"/>
</svg>
