<svg width="22" height="19" viewBox="0 0 22 19" fill="none" xmlns="http://www.w3.org/2000/svg" id="img">
<path d="M11 18.8819C10.8734 18.8819 10.7478 18.85 10.6334 18.7862C10.235 18.5631 0.875 13.2437 0.875 6.50686C0.875 3.40561 3.39875 0.881862 6.5 0.881862C8.30281 0.881862 9.95563 1.73311 11.0009 3.12999C12.5075 1.12186 15.2422 0.3053 17.6637 1.31499C19.7666 2.19155 21.125 4.22968 21.125 6.50686C21.125 13.2437 11.765 18.5631 11.3666 18.7862C11.2531 18.85 11.1266 18.8819 11 18.8819ZM6.5 2.38186C4.22563 2.38186 2.375 4.23249 2.375 6.50686C2.375 11.6781 9.31063 16.2287 11 17.26C12.6894 16.2287 19.625 11.6781 19.625 6.50686C19.625 4.83624 18.6284 3.34186 17.0863 2.69874C16.0691 2.27499 14.9478 2.27217 13.9288 2.69218C12.9097 3.11217 12.1156 3.90249 11.6919 4.91968C11.5756 5.19905 11.3019 5.38093 11 5.38093C10.6981 5.38093 10.4244 5.19905 10.3081 4.91968C9.66594 3.37749 8.17062 2.38092 6.5 2.38092V2.38186Z" fill="currentColor"/>
</svg>
