<svg width="11" height="20" viewBox="0 0 11 20" fill="none" xmlns="http://www.w3.org/2000/svg" id="img">
<path fill-rule="evenodd" clip-rule="evenodd" d="M0.0849609 1.22217C0.0849609 0.807954 0.420747 0.472168 0.834961 0.472168H9.83496C10.1146 0.472168 10.371 0.627761 10.5002 0.87581C10.6293 1.12386 10.6098 1.42316 10.4494 1.65226L5.92009 8.12269C6.43849 8.24105 6.94081 8.42823 7.41326 8.6808C8.28341 9.14597 9.0254 9.81854 9.57354 10.639C10.1217 11.4594 10.459 12.4023 10.5557 13.3842C10.6524 14.3661 10.5054 15.3568 10.1278 16.2683C9.75024 17.1799 9.15367 17.9843 8.39096 18.6102C7.62826 19.2362 6.72296 19.6643 5.75524 19.8569C4.78753 20.0494 3.78728 20.0003 2.84308 19.7139C1.89888 19.4275 1.03988 18.9127 0.342158 18.215C0.0492499 17.9221 0.0492257 17.4473 0.342104 17.1544C0.634982 16.8615 1.10986 16.8614 1.40276 17.1543C1.92605 17.6775 2.57031 18.0637 3.27845 18.2784C3.9866 18.4932 4.73679 18.5301 5.46258 18.3857C6.18836 18.2413 6.86734 17.9202 7.43937 17.4507C8.0114 16.9812 8.45883 16.378 8.74202 15.6943C9.02522 15.0106 9.13544 14.2677 9.06292 13.5312C8.99041 12.7948 8.7374 12.0876 8.3263 11.4723C7.9152 10.8569 7.3587 10.3525 6.70609 10.0036C6.05348 9.65477 5.32491 9.47222 4.58491 9.47217C4.30526 9.47215 4.04885 9.31655 3.91971 9.0685C3.79058 8.82046 3.81017 8.52117 3.97054 8.29207L8.39447 1.97217H0.834961C0.420747 1.97217 0.0849609 1.63638 0.0849609 1.22217Z" fill="currentColor"/>
</svg>
